<?xml version="1.0" encoding="utf-8"?>
<svg viewBox="10.613 14.294 108.436 101.074" width="0px" height="0px" xmlns="http://www.w3.org/2000/svg" xmlns:bx="https://boxy-svg.com">
  <g transform="matrix(0.099628, -0.000007, -0.000007, -0.100001, -28.323515, 274.396149)" fill="#000000" stroke="none" style="" bx:origin="0.501 0.5">
    <path d="M 1061.798 2531.252 C 946.798 2499.252 691.798 2252.252 535.798 2022.252 C 489.798 1955.252 484.798 1917.252 529.798 1974.252 C 707.798 2203.252 938.798 2422.252 1057.798 2475.252 C 1102.798 2495.252 1104.798 2495.252 1117.798 2477.252 C 1148.798 2434.252 1117.798 2299.252 1038.798 2131.252 C 988.798 2025.252 978.798 2012.252 964.798 2034.252 C 952.798 2055.252 871.798 2038.252 832.798 2006.252 C 780.798 1964.252 730.798 1864.252 730.798 1802.252 C 730.798 1761.252 734.798 1751.252 755.798 1737.252 C 775.798 1724.252 786.798 1723.252 811.798 1732.252 C 858.798 1748.252 913.798 1796.252 955.798 1858.252 C 996.798 1917.252 1010.798 1926.252 1010.798 1893.252 C 1010.798 1872.252 1051.798 1823.252 1068.798 1823.252 C 1073.798 1823.252 1108.798 1843.252 1146.798 1868.252 C 1184.798 1892.252 1227.798 1913.252 1242.798 1913.252 C 1257.798 1913.252 1285.798 1899.252 1310.798 1878.252 C 1333.798 1859.252 1356.798 1843.252 1361.798 1843.252 C 1394.798 1843.252 1339.798 1923.252 1288.798 1949.252 C 1249.798 1969.252 1214.798 1960.252 1143.798 1912.252 C 1111.798 1891.252 1080.798 1873.252 1074.798 1873.252 C 1068.798 1873.252 1055.798 1893.252 1046.798 1917.252 L 1029.798 1961.252 L 1073.798 2055.252 C 1157.798 2229.252 1196.798 2399.252 1171.798 2476.252 C 1152.798 2532.252 1120.798 2548.252 1061.798 2531.252 Z M 949.798 1994.252 C 967.798 1983.252 902.798 1886.252 834.798 1823.252 L 785.798 1778.252 L 782.798 1810.252 C 777.798 1865.252 834.798 1958.252 895.798 1991.252 C 919.798 2005.252 931.798 2005.252 949.798 1994.252 Z" style="paint-order: stroke; fill: rgb(255, 255, 255);"/>
  </g>
</svg>